<?xml version="1.0" encoding="utf-8"?>
<!-- Generator: Adobe Illustrator 22.0.1, SVG Export Plug-In . SVG Version: 6.00 Build 0)  -->
<svg version="1.1" id="Layer_1" xmlns="http://www.w3.org/2000/svg" xmlns:xlink="http://www.w3.org/1999/xlink" x="0px" y="0px"
	 viewBox="0 0 26 26" style="enable-background:new 0 0 26 26;" xml:space="preserve">
<style type="text/css">
	.st0{fill:none;stroke:#812990;stroke-width:2;stroke-linejoin:round;stroke-miterlimit:10;}
</style>
<g>
	<path class="st0" d="M1.9,20.1c0,0,0.2-4.1,3.1-4.1c1.5,0,2,1.6,2,5c0,2.1-0.2,4-1,4c-2.6,0-3-1-3-1s-2-5.8-2-11C1,5.4,6.8,1,13,1
		s12,4.4,12,12c0,5.2-2,11-2,11s-0.4,1-3,1c-0.8,0-1-1.9-1-4c0-3.4,0.5-5,2-5c2.9,0,3.1,4.1,3.1,4.1"/>
</g>
</svg>
