<?xml version="1.0" encoding="utf-8"?>
<!-- Generator: Adobe Illustrator 22.0.1, SVG Export Plug-In . SVG Version: 6.00 Build 0)  -->
<svg version="1.1" id="Layer_1" xmlns="http://www.w3.org/2000/svg" xmlns:xlink="http://www.w3.org/1999/xlink" x="0px" y="0px"
	 viewBox="0 0 24 28" style="enable-background:new 0 0 24 28;" xml:space="preserve">
<style type="text/css">
	.st0{fill:none;stroke:#812990;stroke-width:2;stroke-linejoin:round;stroke-miterlimit:10;}
</style>
<g>
	<path class="st0" d="M11,19c0,1.1-0.9,2-2,2H3c-1.1,0-2-0.9-2-2V9c0-1.1,0.9-2,2-2h6c1.1,0,2,0.9,2,2V19z"/>
	<path class="st0" d="M16,24.3c-0.7,1.1-1.8,1.9-3,2.3h0"/>
	<path class="st0" d="M16,3.7c0.6,1,1,2.1,1,3.3v14c0,1.2-0.4,2.4-1,3.3"/>
	<path class="st0" d="M13,1.4c1.2,0.4,2.3,1.2,3,2.3"/>
	<path class="st0" d="M9,7c0-3.3,2.7-6,6-6"/>
	<path class="st0" d="M9,21c0,3.3,2.7,6,6,6"/>
	<path class="st0" d="M3,21c0,3.3,2.7,6,6,6h6h2c3.3,0,6-2.7,6-6V7c0-3.3-2.7-6-6-6h-2H9C5.7,1,3,3.7,3,7"/>
	<path class="st0" d="M17,14c0-1.7,1.3-3,3-3c1.7,0,3,1.3,3,3"/>
</g>
</svg>
