<?xml version="1.0" encoding="utf-8"?>
<!-- Generator: Adobe Illustrator 22.0.1, SVG Export Plug-In . SVG Version: 6.00 Build 0)  -->
<svg version="1.1" id="Capa_1" xmlns="http://www.w3.org/2000/svg" xmlns:xlink="http://www.w3.org/1999/xlink" x="0px" y="0px"
	 viewBox="0 0 451 451" style="enable-background:new 0 0 451 451;" xml:space="preserve">
<style type="text/css">
	.st0{fill:#812990;}
</style>
<g>
	<path class="st0" d="M385,66.1C342.4,23.5,285.8,0,225.5,0C165.3,0,108.6,23.5,66.1,66.1S0,165.3,0,225.5S23.5,342.4,66.1,385
		S165.3,451,225.5,451S342.4,427.6,385,385c42.6-42.6,66.1-99.2,66.1-159.5S427.6,108.6,385,66.1z M225.5,433
		C111.1,433,18,339.9,18,225.5S111.1,18,225.5,18C339.9,18,433,111.1,433,225.5S340,433,225.5,433z"/>
	<path class="st0" d="M225.5,38.1c-103.3,0-187.4,84.1-187.4,187.4s84.1,187.4,187.4,187.4s187.4-84.1,187.4-187.4
		S328.9,38.1,225.5,38.1z M247.8,359.3h-44.6C186.3,303,143.6,257.5,88.4,237.2l15.4-65.5c39.6-9.6,80.5-14.5,121.7-14.5
		c41.2,0,82.1,4.9,121.7,14.6l15.4,65.5C307.4,257.5,264.7,303,247.8,359.3z M56.1,225.5c0-14.3,1.8-28.3,5.2-41.6
		c7.5-2.5,15.1-4.9,22.8-7.1l-12.9,54.9c-4.9-1.3-9.9-2.4-15-3.3C56.2,227.5,56.1,226.5,56.1,225.5z M379.9,231.8L367,176.9
		c7.6,2.2,15.3,4.6,22.8,7.1c3.4,13.3,5.2,27.2,5.2,41.5c0,1,0,2,0,3C389.8,229.4,384.8,230.5,379.9,231.8z M225.5,56.1
		c71.3,0,132.4,44.2,157.4,106.7c-8.6-2.7-17.3-5.1-25.9-7.3c-42.7-10.9-86.9-16.4-131.4-16.4c-44.5,0-88.7,5.5-131.4,16.4
		c-8.6,2.2-17.3,4.7-25.9,7.3C93.1,100.4,154.3,56.1,225.5,56.1z M57.5,247.1c70.9,14.3,125.1,72.7,134.2,144.5
		C121.3,377.2,66.7,319.1,57.5,247.1z M210.1,394.2c-0.6-5.7-1.4-11.3-2.5-16.9h35.8c-1.1,5.6-1.9,11.2-2.5,16.9
		c-5.1,0.5-10.2,0.7-15.4,0.7C220.3,394.9,215.2,394.7,210.1,394.2z M259.3,391.5c9.1-71.8,63.3-130.1,134.2-144.5
		C384.4,319.1,329.7,377.2,259.3,391.5z"/>
	<path class="st0" d="M225.5,174.3c-28.2,0-51.2,23-51.2,51.2c0,28.2,23,51.2,51.2,51.2c28.2,0,51.2-23,51.2-51.2
		C276.7,197.3,253.7,174.3,225.5,174.3z M225.5,258.7c-18.3,0-33.2-14.9-33.2-33.2c0-18.3,14.9-33.2,33.2-33.2s33.2,14.9,33.2,33.2
		C258.7,243.8,243.8,258.7,225.5,258.7z"/>
</g>
</svg>
