<?xml version="1.0" encoding="utf-8"?>
<!-- Generator: Adobe Illustrator 22.0.1, SVG Export Plug-In . SVG Version: 6.00 Build 0)  -->
<svg version="1.1" id="Capa_1" xmlns="http://www.w3.org/2000/svg" xmlns:xlink="http://www.w3.org/1999/xlink" x="0px" y="0px"
	 viewBox="0 0 512 512" style="enable-background:new 0 0 512 512;" xml:space="preserve">
<style type="text/css">
	.st0{fill:#FFFFFF;}
</style>
<g>
	<g>
		<path class="st0" d="M466.7,66.2c-29.6-29.6-69.2-45.9-111.6-45.9c-36.4,0-70.9,12.1-98.6,34.3c-28.2-22.3-62.6-34.3-98.7-34.3
			c-42.5,0-82.3,16.3-111.9,45.9C16.3,95.8,0,135.4,0,177.7c0,42.3,16.3,82,45.9,111.6L243,486.3c3.6,3.6,8.3,5.4,13,5.4
			c4.7,0,9.4-1.8,13-5.4l197.2-196.6C495.8,259.6,512,219.9,512,178C512,135.8,496,96.1,466.7,66.2z M440.1,263.8L256,447.3
			L72,263.2c-22.6-22.7-35.1-53-35.1-85.5S49.3,114.9,72,92.2c22.7-22.6,53.1-35.1,85.8-35.1c32.2,0,62.7,12.5,86,35.3
			c7.2,7.1,18.8,7,25.9-0.1c22.7-22.6,53-35.1,85.5-35.1s62.9,12.5,85.4,35c22.4,22.9,34.7,53.4,34.7,86
			C475.2,210.2,462.6,240.7,440.1,263.8z"/>
	</g>
</g>
</svg>
