<?xml version="1.0" encoding="utf-8"?>
<!-- Generator: Adobe Illustrator 22.0.1, SVG Export Plug-In . SVG Version: 6.00 Build 0)  -->
<svg version="1.1" id="Capa_1" xmlns="http://www.w3.org/2000/svg" xmlns:xlink="http://www.w3.org/1999/xlink" x="0px" y="0px"
	 viewBox="0 0 512 512" style="enable-background:new 0 0 512 512;" xml:space="preserve">
<style type="text/css">
	.st0{fill:#812990;}
</style>
<g>
	<g>
		<path class="st0" d="M466.7,66.2c-29.6-29.6-69.2-45.9-111.6-45.9c-36.4,0-70.9,12.1-98.6,34.3c-28.2-22.3-62.6-34.3-98.7-34.3    c-42.5,0-82.3,16.3-111.9,45.9C16.3,95.8,0,135.4,0,177.7c0,42.3,16.3,82,45.9,111.6L243,486.3c3.6,3.6,8.3,5.4,13,5.4    c4.7,0,9.4-1.8,13-5.4l197.2-196.6C495.8,259.6,512,219.9,512,178C512,135.8,496,96.1,466.7,66.2z M440.1,263.8L256,447.3     "/>
	</g>
</g>
</svg>
